<svg width="640" height="640" viewBox="0 0 640 640" fill="none" xmlns="http://www.w3.org/2000/svg">
  <defs>
    <linearGradient id="panel" x1="76" y1="52" x2="574" y2="590" gradientUnits="userSpaceOnUse">
      <stop stop-color="#151F43"/>
      <stop offset="1" stop-color="#08101F"/>
    </linearGradient>
    <linearGradient id="bike" x1="210" y1="266" x2="416" y2="514" gradientUnits="userSpaceOnUse">
      <stop stop-color="#2A345C"/>
      <stop offset="1" stop-color="#080D17"/>
    </linearGradient>
    <linearGradient id="head" x1="288" y1="144" x2="376" y2="252" gradientUnits="userSpaceOnUse">
      <stop stop-color="#FF746B"/>
      <stop offset="1" stop-color="#D84354"/>
    </linearGradient>
    <linearGradient id="glow" x1="188" y1="148" x2="516" y2="460" gradientUnits="userSpaceOnUse">
      <stop stop-color="#FF54D8"/>
      <stop offset="1" stop-color="#5AD8FF"/>
    </linearGradient>
  </defs>
  <rect x="28" y="28" width="584" height="584" rx="108" fill="url(#panel)"/>
  <g opacity="0.28">
    <circle cx="464" cy="138" r="110" fill="#24466F"/>
    <circle cx="172" cy="452" r="132" fill="#4B2D7A"/>
  </g>
  <circle cx="430" cy="450" r="96" fill="#111624" stroke="#222B4F" stroke-width="18"/>
  <circle cx="430" cy="450" r="42" fill="#0A1020" stroke="#F3B24D" stroke-width="14"/>
  <circle cx="192" cy="426" r="88" fill="#141A2D" stroke="#2E3152" stroke-width="16"/>
  <circle cx="192" cy="426" r="58" fill="#0A1020" stroke="#8A93B8" stroke-width="12"/>
  <path d="M194 426L266 332H350L430 450" stroke="url(#glow)" stroke-width="18" stroke-linecap="round" stroke-linejoin="round"/>
  <path d="M266 332L304 388H388" stroke="#FF54D8" stroke-width="16" stroke-linecap="round" stroke-linejoin="round"/>
  <path d="M350 332L438 332" stroke="#B1B8D8" stroke-width="12" stroke-linecap="round"/>
  <path d="M388 332L430 294" stroke="#B1B8D8" stroke-width="12" stroke-linecap="round"/>
  <path d="M332 248C332 212 360 182 396 182C432 182 460 212 460 248V284H332V248Z" fill="#141924"/>
  <ellipse cx="396" cy="210" rx="76" ry="54" fill="#1B2236"/>
  <path d="M338 208C360 182 432 182 454 208" stroke="#8F99BD" stroke-width="12" stroke-linecap="round"/>
  <ellipse cx="396" cy="264" rx="58" ry="56" fill="url(#head)"/>
  <circle cx="378" cy="264" r="16" fill="#081019"/>
  <circle cx="414" cy="264" r="16" fill="#081019"/>
  <circle cx="378" cy="264" r="6" fill="#58D5FF"/>
  <circle cx="414" cy="264" r="6" fill="#58D5FF"/>
  <path d="M350 210L338 184" stroke="#FF5CD9" stroke-width="8" stroke-linecap="round"/>
  <path d="M444 210L456 184" stroke="#FF5CD9" stroke-width="8" stroke-linecap="round"/>
  <path d="M350 292L292 352" stroke="#141924" stroke-width="26" stroke-linecap="round"/>
  <path d="M428 292L462 360" stroke="#141924" stroke-width="26" stroke-linecap="round"/>
  <path d="M108 328H248C274 328 296 350 296 378V420H108V328Z" fill="url(#bike)"/>
  <ellipse cx="170" cy="354" rx="46" ry="50" fill="#F4A13A"/>
  <circle cx="154" cy="350" r="12" fill="#081019"/>
  <circle cx="192" cy="350" r="12" fill="#081019"/>
  <circle cx="154" cy="350" r="4" fill="#58D5FF"/>
  <circle cx="192" cy="350" r="4" fill="#58D5FF"/>
  <path d="M176 300C190 280 216 272 238 278" stroke="#C89553" stroke-width="8" stroke-linecap="round"/>
  <path d="M220 290L244 314" stroke="#F3B24D" stroke-width="8" stroke-linecap="round"/>
  <circle cx="490" cy="502" r="28" fill="#0D1222" stroke="#52D7FF" stroke-width="6"/>
  <path d="M474 502C484 494 496 494 506 502C496 510 484 510 474 502Z" fill="#FF4ED7"/>
  <circle cx="490" cy="502" r="10" fill="#0D1222" stroke="#5AD8FF" stroke-width="4"/>
</svg>
