<svg width="640" height="640" viewBox="0 0 640 640" fill="none" xmlns="http://www.w3.org/2000/svg">
  <defs>
    <linearGradient id="panel" x1="80" y1="64" x2="580" y2="580" gradientUnits="userSpaceOnUse">
      <stop stop-color="#1A244A"/>
      <stop offset="1" stop-color="#0A1023"/>
    </linearGradient>
    <linearGradient id="brain" x1="252" y1="86" x2="394" y2="270" gradientUnits="userSpaceOnUse">
      <stop stop-color="#FFB0D7"/>
      <stop offset="1" stop-color="#FF6B8F"/>
    </linearGradient>
    <linearGradient id="body" x1="248" y1="262" x2="394" y2="492" gradientUnits="userSpaceOnUse">
      <stop stop-color="#FF6B6D"/>
      <stop offset="1" stop-color="#C83D47"/>
    </linearGradient>
    <linearGradient id="arm" x1="120" y1="200" x2="230" y2="360" gradientUnits="userSpaceOnUse">
      <stop stop-color="#FF8A8D"/>
      <stop offset="1" stop-color="#BB3047"/>
    </linearGradient>
    <filter id="glow" x="0" y="0" width="640" height="640" filterUnits="userSpaceOnUse" color-interpolation-filters="sRGB">
      <feGaussianBlur stdDeviation="12" result="blur"/>
      <feMerge>
        <feMergeNode in="blur"/>
        <feMergeNode in="SourceGraphic"/>
      </feMerge>
    </filter>
  </defs>
  <rect x="28" y="28" width="584" height="584" rx="108" fill="url(#panel)"/>
  <g opacity="0.34">
    <circle cx="178" cy="164" r="118" fill="#50308A"/>
    <circle cx="472" cy="438" r="146" fill="#203B6E"/>
  </g>
  <path d="M124 274C92 230 132 178 190 190C234 198 258 234 254 278C252 308 236 332 212 348C182 368 144 356 132 320C126 302 126 286 124 274Z" fill="url(#arm)"/>
  <path d="M516 274C548 230 508 178 450 190C406 198 382 234 386 278C388 308 404 332 428 348C458 368 496 356 508 320C514 302 514 286 516 274Z" fill="url(#arm)"/>
  <path d="M176 220L112 196" stroke="#FFB15C" stroke-width="18" stroke-linecap="round"/>
  <path d="M464 220L528 196" stroke="#FFB15C" stroke-width="18" stroke-linecap="round"/>
  <path d="M320 92C255 92 206 144 206 210C206 234 212 256 224 276H416C428 256 434 234 434 210C434 144 385 92 320 92Z" fill="url(#brain)"/>
  <path d="M228 194C244 164 272 146 304 146" stroke="#F25A89" stroke-width="12" stroke-linecap="round"/>
  <path d="M338 146C370 146 398 164 414 194" stroke="#F25A89" stroke-width="12" stroke-linecap="round"/>
  <path d="M250 224C274 198 304 186 320 186C336 186 366 198 390 224" stroke="#F25A89" stroke-width="12" stroke-linecap="round"/>
  <path d="M228 284C228 232 270 190 320 190C370 190 412 232 412 284V420C412 466 374 504 328 504H312C266 504 228 466 228 420V284Z" fill="url(#body)"/>
  <circle cx="288" cy="308" r="20" fill="#081019"/>
  <circle cx="352" cy="308" r="20" fill="#081019"/>
  <circle cx="288" cy="308" r="8" fill="#58D5FF"/>
  <circle cx="352" cy="308" r="8" fill="#58D5FF"/>
  <path d="M250 442H292V502H250V442Z" fill="#C83D47"/>
  <path d="M348 442H390V502H348V442Z" fill="#C83D47"/>
  <g filter="url(#glow)" opacity="0.86">
    <path d="M112 148L144 176L130 206L164 194" stroke="#FF7B54" stroke-width="8" stroke-linecap="round" stroke-linejoin="round"/>
    <path d="M528 150L496 178L510 208L476 196" stroke="#58D5FF" stroke-width="8" stroke-linecap="round" stroke-linejoin="round"/>
    <path d="M204 128L228 144L220 168L246 156" stroke="#FF9AF1" stroke-width="6" stroke-linecap="round" stroke-linejoin="round"/>
    <path d="M434 128L410 144L418 168L392 156" stroke="#FF9AF1" stroke-width="6" stroke-linecap="round" stroke-linejoin="round"/>
  </g>
</svg>
